<svg width="22" height="28" viewBox="0 0 22 28" fill="none" xmlns="http://www.w3.org/2000/svg">
<path d="M13.6666 0.666504L21.6666 8.6665V24.6665C21.6666 25.3737 21.3856 26.052 20.8855 26.5521C20.3854 27.0522 19.7072 27.3332 18.9999 27.3332H2.99992C2.29267 27.3332 1.6144 27.0522 1.1143 26.5521C0.614203 26.052 0.333252 25.3737 0.333252 24.6665V3.33317C0.333252 2.62593 0.614203 1.94765 1.1143 1.44755C1.6144 0.947455 2.29267 0.666504 2.99992 0.666504H13.6666ZM18.9999 24.6665V9.99984H12.3333V3.33317H2.99992V24.6665H18.9999ZM10.9999 13.9998L16.3333 19.3332H12.9999V23.3332H8.99992V19.3332H5.66659L10.9999 13.9998Z" fill="black"/>
</svg>
